<svg width="38" height="27" viewBox="0 0 38 27" fill="none" xmlns="http://www.w3.org/2000/svg">
<path d="M28.6875 0C25.8019 0 24.0469 0.556875 23.0344 1.02938C21.735 0.388125 20.25 0 18.5625 0C16.875 0 15.39 0.388125 14.0906 1.02938C13.0781 0.556875 11.3231 0 8.4375 0C3.375 0 0 13.5 0 16.875C0 18.2756 2.2275 19.5581 5.29875 20.0812C6.37875 23.8612 11.475 26.7469 17.7188 27V19.7775C16.7231 19.1531 15.1875 18.0225 15.1875 16.875C15.1875 15.1875 18.5625 15.1875 18.5625 15.1875C18.5625 15.1875 21.9375 15.1875 21.9375 16.875C21.9375 18.0225 20.4019 19.1531 19.4062 19.7775V27C25.65 26.7469 30.7463 23.8612 31.8263 20.0812C34.8975 19.5581 37.125 18.2756 37.125 16.875C37.125 13.5 33.75 0 28.6875 0ZM5.31563 16.6556C4.47188 16.4531 3.81375 16.2169 3.375 16.0312C3.79688 11.3569 7.0875 4.05 8.52188 3.375C9.43313 3.375 10.125 3.47625 10.7494 3.56063C7.20562 7.45875 5.805 13.5675 5.31563 16.6556V16.6556ZM13.5 13.5C13.0524 13.5 12.6232 13.3222 12.3068 13.0057C11.9903 12.6893 11.8125 12.2601 11.8125 11.8125C11.8125 10.9012 12.5719 10.125 13.5 10.125C13.9476 10.125 14.3768 10.3028 14.6932 10.6193C15.0097 10.9357 15.1875 11.3649 15.1875 11.8125C15.1875 12.7575 14.4281 13.5 13.5 13.5ZM23.625 13.5C23.1774 13.5 22.7482 13.3222 22.4318 13.0057C22.1153 12.6893 21.9375 12.2601 21.9375 11.8125C21.9375 10.9012 22.6969 10.125 23.625 10.125C24.0726 10.125 24.5018 10.3028 24.8182 10.6193C25.1347 10.9357 25.3125 11.3649 25.3125 11.8125C25.3125 12.7575 24.5531 13.5 23.625 13.5ZM31.8094 16.6556C31.32 13.5675 29.9194 7.45875 26.3756 3.56063C27 3.47625 27.6919 3.375 28.6031 3.375C30.0375 4.05 33.3281 11.3569 33.75 16.0312C33.3281 16.2169 32.67 16.4531 31.8094 16.6556V16.6556Z" fill="#276735"/>
</svg>
